<svg xmlns="http://www.w3.org/2000/svg" width="16" height="16" viewBox="0 0 16 16">
  <g id="グループ_3846" data-name="グループ 3846" transform="translate(-69 -10)">
    <rect id="長方形_1810" data-name="長方形 1810" width="16" height="16" rx="4" transform="translate(69 10)" fill="#fff"/>
    <g id="グループ_3844" data-name="グループ 3844" transform="translate(71.152 12.178)">
      <path id="パス_258" data-name="パス 258" d="M15.047,57.485a5.707,5.707,0,0,0-1.019.527,8.485,8.485,0,0,0,1.191,1.839c.086-.42.195-.865.333-1.336a12.97,12.97,0,0,1,.476-1.35,7.849,7.849,0,0,0-.981.32" transform="translate(-13.208 -53.875)" fill="#00abe5"/>
      <path id="パス_259" data-name="パス 259" d="M52.253,52.005a14.6,14.6,0,0,0-2.06-.2,11.506,11.506,0,0,0-1.931.1,11.473,11.473,0,0,0-.692,1.805,14.685,14.685,0,0,0-.429,1.911,14.678,14.678,0,0,0,1.47,1.294,9.816,9.816,0,0,0,3.581,1.825,5.7,5.7,0,0,0,1.134.172,11.025,11.025,0,0,0-.431-5.2,11.7,11.7,0,0,0-.642-1.705" transform="translate(-44.384 -48.824)" fill="#00abe5"/>
      <path id="パス_260" data-name="パス 260" d="M76.744,10.782c.544.016,1.046.056,1.511.113a6.584,6.584,0,0,0-1.5-1.735,6.655,6.655,0,0,0-1.446,1.658,12.97,12.97,0,0,1,1.43-.036" transform="translate(-70.909 -8.678)" fill="#00abe5"/>
      <path id="パス_262" data-name="パス 262" d="M115.375,3.316a10.118,10.118,0,0,1,2.689.919A5.853,5.853,0,0,0,113.558.918a8.334,8.334,0,0,1,1.817,2.4" transform="translate(-106.917 -0.918)" fill="#00abe5"/>
      <path id="パス_263" data-name="パス 263" d="M12.647,3.2A8.252,8.252,0,0,1,14.4.917,5.854,5.854,0,0,0,9.929,4.168,8.258,8.258,0,0,1,12.647,3.2" transform="translate(-9.348 -0.917)" fill="#00abe5"/>
      <path id="パス_264" data-name="パス 264" d="M1.828,83.394A10.222,10.222,0,0,1,.106,80.976a5.854,5.854,0,0,0,1.75,5.386,10.221,10.221,0,0,1-.029-2.968" transform="translate(0 -76.294)" fill="#5fbf00"/>
      <path id="パス_266" data-name="パス 266" d="M45.815,136.9c-.388-.3-.738-.6-1.054-.885a9.829,9.829,0,0,0,.007,1.376,6.816,6.816,0,0,0,.342,1.618,5.854,5.854,0,0,0,5.631.051,9.679,9.679,0,0,1-4.927-2.161" transform="translate(-42.124 -128.118)" fill="#5fbf00"/>
      <path id="パス_267" data-name="パス 267" d="M153.562,59.552c-.268-.1-.578-.2-.931-.3.152.376.3.784.426,1.228a12.111,12.111,0,0,1,.488,5.428A5.853,5.853,0,0,0,155.29,60.5a7.157,7.157,0,0,0-1.728-.95" transform="translate(-143.705 -55.845)" fill="#00abe5"/>
    </g>
  </g>
</svg>
