<svg xmlns="http://www.w3.org/2000/svg" width="32" height="32" viewBox="0 0 32 32">
  <g id="グループ_3845" data-name="グループ 3845" transform="translate(-16 -10)">
    <rect id="長方形_1809" data-name="長方形 1809" width="32" height="32" rx="4" transform="translate(16 10)" fill="#fff"/>
    <g id="グループ_3843" data-name="グループ 3843" transform="translate(21.276 15.325)">
      <path id="パス_258" data-name="パス 258" d="M15.9,57.751a10.465,10.465,0,0,0-1.868.967,15.558,15.558,0,0,0,2.184,3.372c.157-.77.358-1.587.61-2.449a23.783,23.783,0,0,1,.874-2.476,14.392,14.392,0,0,0-1.8.586" transform="translate(-12.524 -51.133)" fill="#00abe5"/>
      <path id="パス_259" data-name="パス 259" d="M56.514,52.177a26.773,26.773,0,0,0-3.777-.368,21.1,21.1,0,0,0-3.54.184,21.041,21.041,0,0,0-1.27,3.31,26.924,26.924,0,0,0-.786,3.5,26.914,26.914,0,0,0,2.7,2.372A18,18,0,0,0,56.4,64.526a10.458,10.458,0,0,0,2.08.316,20.217,20.217,0,0,0-.791-9.539,21.46,21.46,0,0,0-1.177-3.127" transform="translate(-42.086 -46.343)" fill="#00abe5"/>
      <path id="パス_260" data-name="パス 260" d="M77.936,12.134c1,.029,1.919.1,2.771.208A12.071,12.071,0,0,0,77.965,9.16,12.2,12.2,0,0,0,75.314,12.2a23.782,23.782,0,0,1,2.622-.066" transform="translate(-67.238 -8.276)" fill="#00abe5"/>
      <path id="パス_262" data-name="パス 262" d="M116.89,5.315A18.553,18.553,0,0,1,121.82,7,10.733,10.733,0,0,0,113.558.918a15.283,15.283,0,0,1,3.332,4.4" transform="translate(-101.38 -0.918)" fill="#00abe5"/>
      <path id="パス_263" data-name="パス 263" d="M14.913,5.107A15.131,15.131,0,0,1,18.135.917,10.734,10.734,0,0,0,9.929,6.878a15.142,15.142,0,0,1,4.984-1.772" transform="translate(-8.864 -0.917)" fill="#00abe5"/>
      <path id="パス_264" data-name="パス 264" d="M3.351,85.41A18.742,18.742,0,0,1,.195,80.976,10.734,10.734,0,0,0,3.4,90.852a18.741,18.741,0,0,1-.052-5.442" transform="translate(0 -72.391)" fill="#5fbf00"/>
      <path id="パス_266" data-name="パス 266" d="M46.711,137.641c-.711-.549-1.354-1.092-1.933-1.622a18.023,18.023,0,0,0,.013,2.523,12.5,12.5,0,0,0,.628,2.967,10.734,10.734,0,0,0,10.326.094,17.748,17.748,0,0,1-9.034-3.962" transform="translate(-39.942 -121.531)" fill="#5fbf00"/>
      <path id="パス_267" data-name="パス 267" d="M154.338,59.8c-.491-.183-1.059-.369-1.707-.542.279.689.543,1.438.781,2.252a22.206,22.206,0,0,1,.9,9.953,10.732,10.732,0,0,0,3.2-9.921,13.123,13.123,0,0,0-3.169-1.742" transform="translate(-136.263 -53.001)" fill="#00abe5"/>
    </g>
  </g>
</svg>
