<svg xmlns="http://www.w3.org/2000/svg" width="19" height="19" viewBox="0 0 19 19">
  <g id="グループ_3609" data-name="グループ 3609" transform="translate(-283 -147)">
    <g id="楕円形_16268" data-name="楕円形 16268" transform="translate(283 147)" fill="none" stroke="#3b3c41" stroke-width="1.5">
      <circle cx="9.5" cy="9.5" r="9.5" stroke="none"/>
      <circle cx="9.5" cy="9.5" r="8.75" fill="none"/>
    </g>
    <path id="前面オブジェクトで型抜き_486" data-name="前面オブジェクトで型抜き 486" d="M11.391,11.55h0l-1.146-1.07A4.847,4.847,0,0,0,12.377,6.5a4.656,4.656,0,0,0-.564-2.229l1.056-1.3A6.141,6.141,0,0,1,13.991,6.5a6.307,6.307,0,0,1-2.6,5.054ZM2.528,11.5h0A6.308,6.308,0,0,1,0,6.5a6.768,6.768,0,0,1,7-6.5,7.5,7.5,0,0,1,2,.269L7.933,1.575A5.872,5.872,0,0,0,6.995,1.5a5.206,5.206,0,0,0-5.382,5A4.854,4.854,0,0,0,3.68,10.434L2.529,11.5Z" transform="translate(285.5 149.499)" fill="#eac311"/>
    <g id="楕円形_16271" data-name="楕円形 16271" transform="translate(289.996 153.996)" fill="none" stroke="#3b3c41" stroke-width="1.5">
      <circle cx="2.499" cy="2.499" r="2.499" stroke="none"/>
      <circle cx="2.499" cy="2.499" r="1.749" fill="none"/>
    </g>
    <rect id="長方形_1612" data-name="長方形 1612" width="1.499" height="4.997" transform="matrix(-0.799, -0.602, 0.602, -0.799, 294.273, 155.442)" fill="#3b3c41"/>
  </g>
</svg>
