<svg id="Layer_1" enable-background="new 0 0 510.987 510.987" height="512" viewBox="0 0 510.987 510.987" width="512" xmlns="http://www.w3.org/2000/svg"><path d="m302.991 67.746v6.03c-8.86 28.2-67.21 55.9-150.52 55.9-65.19 0-123.08-16.02-144.05-39.88-3.97-4.52-6.43-9.08-7.43-13.8v-8.25c0-19.4 16.62-37.02 46.8-49.64 91.84-38.365 255.2-12.931 255.2 49.64z"/><path d="m189.491 299.031v52.238c0 2.054-1.552 3.786-3.597 3.981-75.608 7.237-176.382-11.907-184.903-52.124v-38.666c0-3.278 3.743-5.189 6.366-3.223 42.243 31.654 123.474 38.719 177.75 33.814 2.351-.213 4.384 1.619 4.384 3.98z"/><path d="m189.491 375.411v55.939c0 2.049-1.544 3.78-3.583 3.984-43.648 4.359-97.501.499-138.117-16.468-30.18-12.62-46.8-30.24-46.8-49.64v-36.89c39.77 36.748 129.436 44.036 184.116 39.094 2.351-.212 4.384 1.62 4.384 3.981z"/><path d="m189.491 223.661v51.229c0 2.054-1.552 3.786-3.597 3.981-74.718 7.152-176.328-11.648-184.903-52.125v-37.657c0-3.277 3.742-5.188 6.365-3.224 42.547 31.872 124.19 38.654 177.751 33.815 2.352-.212 4.384 1.62 4.384 3.981z"/><path d="m302.991 110.993v18.548c0 1.967-1.435 3.63-3.377 3.945-41.243 6.689-104.585 26.639-109.781 66.435-.244 1.87-1.692 3.359-3.569 3.54-56.169 5.431-147.13-3.353-177.844-38.285-3.97-4.52-6.44-9.09-7.43-13.81v-37.648c0-3.277 3.742-5.188 6.365-3.224 61.376 45.974 223.533 48.936 289.152-2.631 2.634-2.068 6.484-.219 6.484 3.13z"/><path d="m214.511 408.701c-2.632-2.103-6.52-.267-6.52 3.102v31.424c0 62.748 163.481 87.955 255.2 49.64 30.18-12.62 46.8-30.24 46.8-49.64v-31.424c0-3.369-3.888-5.205-6.52-3.102-61.401 49.048-226.324 50.035-288.96 0zm.001-149.948c-2.632-2.104-6.521-.268-6.521 3.101v32.641c1.13 13.4 14.42 27.59 36.05 38.31 58.335 28.918 171.44 28.98 229.9 0 21.63-10.72 34.92-24.91 36.05-38.31v-32.641c0-3.37-3.889-5.205-6.521-3.101-61.986 49.543-227.075 49.461-288.958 0zm295.449-42.007c-.56-19-17.11-36.24-46.77-48.64-76.256-31.855-199.764-19.694-241.08 20.19-22.278 21.514-20.496 48.834 21.93 69.86 58.332 28.917 171.44 28.98 229.9 0 16.488-8.171 37.025-23.318 36.02-41.41zm-295.45 116.655c-2.632-2.103-6.52-.267-6.52 3.102v33.294c1.13 13.4 14.42 27.59 36.05 38.31 58.337 28.918 171.44 28.979 229.9 0 21.63-10.72 34.92-24.91 36.05-38.31v-33.294c0-3.369-3.888-5.205-6.52-3.102-61.397 49.043-226.312 50.043-288.96 0z"/></svg>