<svg xmlns="http://www.w3.org/2000/svg" width="21.01" height="17.131" viewBox="0 0 21.01 17.131">
  <g id="グループ_1074" data-name="グループ 1074" transform="translate(-9.5 -13)">
    <path id="Icon_metro-table" data-name="Icon metro-table" d="M2.571,3.856V17.107H17.715V3.856H2.571ZM8.25,12.375V9.535h3.786v2.84Zm3.786.947v2.84H8.25v-2.84Zm0-7.572v2.84H8.25V5.749Zm-4.733,0v2.84H3.517V5.749ZM3.517,9.535H7.3v2.84H3.517Zm9.465,0h3.786v2.84H12.982Zm0-.947V5.749h3.786v2.84ZM3.517,13.321H7.3v2.84H3.517v-2.84Zm9.465,2.84v-2.84h3.786v2.84Z" transform="translate(6.929 9.144)" fill="#41434e"/>
    <g id="グループ_980" data-name="グループ 980" transform="translate(-9.6 -5.916)">
      <path id="パス_95" data-name="パス 95" d="M.219-.2H2.782L13.394,2.422l.175,10.706H0V9.386l.219-.545V-.2Z" transform="translate(25 21.981)" fill="#fff"/>
      <g id="グループ_979" data-name="グループ 979" transform="translate(25.874 24.508)">
        <rect id="長方形_484" data-name="長方形 484" width="2" height="7.9" rx="1" transform="translate(7.596 3.638)" fill="#f2c812"/>
        <rect id="長方形_487" data-name="長方形 487" width="2" height="5.1" rx="1" transform="translate(2.386 5.038)" fill="#f2c812"/>
        <rect id="長方形_485" data-name="長方形 485" width="2" height="6.6" rx="1" transform="translate(4.967 4.289)" fill="#f2c812"/>
        <rect id="長方形_486" data-name="長方形 486" width="2" height="3.8" rx="1" transform="translate(-0.194 5.688)" fill="#f2c812"/>
        <path id="パス_94" data-name="パス 94" d="M69.387,20.5s-.071-3.9,0-4.211.062-.191.185-.373a.919.919,0,0,1,.351-.281,1.355,1.355,0,0,1,.618-.121,3.778,3.778,0,0,1,.7.121s10.071,2.551,10.2,2.637a1.351,1.351,0,0,1,.4.271,1.056,1.056,0,0,1,.191.675s0,5.564,0,5.793a.692.692,0,0,1-.276.6,1.081,1.081,0,0,1-.746.254c-.18,0-1.471-.341-1.471-.341" transform="translate(-68.6 -16.722)" fill="none" stroke="#f2c812" stroke-linecap="round" stroke-width="1.6"/>
      </g>
    </g>
  </g>
</svg>
