<svg xmlns="http://www.w3.org/2000/svg" width="19.803" height="19.805" viewBox="0 0 19.803 19.805">
  <g id="グループ_662" data-name="グループ 662" transform="translate(-191.625 -218.494) rotate(45)">
    <path id="合体_4" data-name="合体 4" d="M2441,20822v-4h-2l2-2,1-1,3,3h-2v4Z" transform="translate(-2138 -20807)" fill="#c3c3c3"/>
    <path id="合体_7" data-name="合体 7" d="M2441,20822v-4h-2l2-2,1-1,3,3h-2v4Z" transform="translate(21130 -2423) rotate(90)" fill="#c3c3c3"/>
    <path id="合体_5" data-name="合体 5" d="M2441,20822v-4h-2l2-2,1-1,3,3h-2v4Z" transform="translate(2746.002 20845) rotate(180)" fill="#c3c3c3"/>
    <path id="合体_6" data-name="合体 6" d="M2441,20822v-4h-2l2-2,1-1,3,3h-2v4Z" transform="translate(-20522 2461) rotate(-90)" fill="#c3c3c3"/>
  </g>
</svg>
