<svg xmlns="http://www.w3.org/2000/svg" xmlns:xlink="http://www.w3.org/1999/xlink" width="27" height="42" viewBox="0 0 27 42">
<defs>
  <filter id="Rectangle_513" x="0" y="0" width="27" height="42" filterUnits="userSpaceOnUse">
    <feOffset dx="2" dy="2" input="SourceAlpha"/>
    <feGaussianBlur stdDeviation="1" result="blur"/>
    <feFlood flood-opacity="0.2"/>
    <feComposite operator="in" in2="blur"/>
    <feComposite in="SourceGraphic"/>
  </filter>
</defs>
<g id="Component_70_45" data-name="Component 70 – 45" transform="translate(1 1)">
  <g id="Group_1054" data-name="Group 1054" transform="translate(-458 -90.5)">
    <g transform="matrix(1, 0, 0, 1, 457, 89.5)" filter="url(#Rectangle_513)">
      <g id="Rectangle_513-2" data-name="Rectangle 513" transform="translate(1 1)" fill="#fff" stroke="#f0f0f0" stroke-width="1">
        <path d="M0,0H17a4,4,0,0,1,4,4V32a4,4,0,0,1-4,4H0a0,0,0,0,1,0,0V0A0,0,0,0,1,0,0Z" stroke="none"/>
        <path d="M1,.5H17A3.5,3.5,0,0,1,20.5,4V32A3.5,3.5,0,0,1,17,35.5H1A.5.5,0,0,1,.5,35V1A.5.5,0,0,1,1,.5Z" fill="none"/>
      </g>
    </g>
    <g id="Group_2229" data-name="Group 2229" transform="translate(463.721 104)">
      <path id="Icon_material-keyboard-arrow-left" data-name="Icon material-keyboard-arrow-left" d="M12,16.193l3.435-3.443L12,9.308,13.058,8.25l4.5,4.5-4.5,4.5Z" transform="translate(-8 -8.25)" fill="#43a5c4"/>
      <path id="Icon_material-keyboard-arrow-left-2" data-name="Icon material-keyboard-arrow-left" d="M12,16.193l3.435-3.443L12,9.308,13.058,8.25l4.5,4.5-4.5,4.5Z" transform="translate(-12 -8.25)" fill="#43a5c4"/>
    </g>
  </g>
</g>
</svg>
