<svg xmlns="http://www.w3.org/2000/svg" width="19.999" height="20" viewBox="0 0 19.999 20">
    <path id="Union_253" data-name="Union 253" d="M462.643,8632h-5.286a.856.856,0,1,1,0-1.713h4.43v-4.431a.857.857,0,0,1,1.714,0v5.288a.856.856,0,0,1-.858.855Zm-18.286,0a.856.856,0,0,1-.856-.855v-5.288a.856.856,0,0,1,1.711,0v4.431h4.43a.856.856,0,1,1,0,1.713Zm17.43-13.855v-4.433h-4.43a.855.855,0,1,1,0-1.711h5.308a.855.855,0,0,1,.836.855v5.288a.857.857,0,0,1-1.714,0Zm-18.286,0v-5.286a.856.856,0,0,1,.856-.855h5.286a.855.855,0,1,1,0,1.711h-4.43v4.431a.856.856,0,1,1-1.711,0Z" transform="translate(-8612.001 463.501) rotate(-90)" fill="#43a5c4"/>
</svg>
