<svg xmlns="http://www.w3.org/2000/svg" width="17.159" height="18.706" viewBox="0 0 17.159 18.706">
  <g id="グループ_981" data-name="グループ 981" transform="translate(-10 -10.974)">
    <g id="多角形_63" data-name="多角形 63" transform="translate(27.159 10.974) rotate(90)" fill="#62bb46">
      <path d="M 5.556184768676758 3.5 L 1.062617301940918 3.5 L 3.309401035308838 0.7843612432479858 L 5.556184768676758 3.5 Z" stroke="none"/>
      <path d="M 3.309401035308838 1.568722486495972 L 2.12523365020752 3 L 4.493568420410156 3 L 3.309401035308838 1.568722486495972 M 3.309401035308838 0 L 6.618801116943359 4 L 9.5367431640625e-07 4 L 3.309401035308838 0 Z" stroke="none" fill="#62bb46"/>
    </g>
    <g id="多角形_64" data-name="多角形 64" transform="translate(27.159 23.062) rotate(90)" fill="#62bb46">
      <path d="M 5.556184768676758 3.5 L 1.062617301940918 3.5 L 3.309401035308838 0.7843612432479858 L 5.556184768676758 3.5 Z" stroke="none"/>
      <path d="M 3.309401035308838 1.568722486495972 L 2.12523365020752 3 L 4.493568420410156 3 L 3.309401035308838 1.568722486495972 M 3.309401035308838 0 L 6.618801116943359 4 L 9.5367431640625e-07 4 L 3.309401035308838 0 Z" stroke="none" fill="#62bb46"/>
    </g>
    <path id="パス_97" data-name="パス 97" d="M24.523,14.283H16.9V26.371h7.627" fill="none" stroke="#62bb46" stroke-linejoin="round" stroke-width="2"/>
    <line id="線_214" data-name="線 214" x1="6" transform="translate(10 20.49)" fill="none" stroke="#62bb46" stroke-width="2"/>
  </g>
</svg>
