<svg xmlns="http://www.w3.org/2000/svg" width="1192.601" height="199.083" viewBox="0 0 1192.601 199.083"><defs><style>.a{fill:#00233c;}.b{fill:#78be20;}.c{fill:#00abe5;}.d{fill:#5fbf00;}</style></defs><g transform="translate(-364.7 -429.917)"><g transform="translate(430.684 426.912)"><path class="a" d="M-11553.611,3505.436l-.024,0c-8.715-1.4-16.41-3.833-22.253-7.041a37.326,37.326,0,0,1-9.7-6.854,23.784,23.784,0,0,1-5.613-8.557l-.006-.015a9.865,9.865,0,0,1,1.459-8.936,9.773,9.773,0,0,1,7.841-4.347,8.607,8.607,0,0,1,3.762.877l.078.037a12.348,12.348,0,0,1,3.854,3.693c.1.131.2.261.3.389,4.813,5.647,12.478,9.25,23.43,11.008a70.109,70.109,0,0,0,10.146.74,58.037,58.037,0,0,0,11.3-1.049,30.388,30.388,0,0,0,10.448-4.035,16.773,16.773,0,0,0,6.69-7.782,16.114,16.114,0,0,0,1.188-5.215,12.844,12.844,0,0,0-.71-5.078l-.006-.016a15.928,15.928,0,0,0-4.169-6.285,27.274,27.274,0,0,0-6.92-4.6c-5.691-2.75-12.524-4.328-17.845-5.4a134.573,134.573,0,0,1-24.173-6.777,57.048,57.048,0,0,1-12.131-6.22,33.222,33.222,0,0,1-9.631-9.9,27.055,27.055,0,0,1-3.257-8.083,38.7,38.7,0,0,1-.99-8.709c-.021-5.632,1.093-11.223,2.984-14.954l.009-.019a40.271,40.271,0,0,1,21.494-19.459c6.413-2.533,13.675-3.762,22.2-3.762a82.519,82.519,0,0,1,13.491,1.1,64.817,64.817,0,0,1,12.394,3.254,44.085,44.085,0,0,1,12.61,7.023,22.923,22.923,0,0,1,7.327,9.621,9.48,9.48,0,0,1-1.876,9.648,9.547,9.547,0,0,1-7.243,3.417,8.4,8.4,0,0,1-4.011-1l-.056-.031a10.1,10.1,0,0,1-1.771-1.388c-.283-.261-.548-.507-.815-.712l-.125-.1-.108-.115a36.629,36.629,0,0,0-13.937-8.774l-.016-.006c-4.925-1.836-10.538-1.988-15.865-1.988-7.078,0-13.494,1.431-18.071,4.032a16.514,16.514,0,0,0-5.914,5.411,15.1,15.1,0,0,0-2.244,8.255,13.223,13.223,0,0,0,2.035,7.542,17.685,17.685,0,0,0,6.612,5.535,66,66,0,0,0,12.246,4.723c5.464,1.634,11.945,3.214,18.134,4.677a79.078,79.078,0,0,1,22.159,8.376,38.515,38.515,0,0,1,12.639,11.509c4.92,7.353,6.342,16.245,4.229,26.429a32.236,32.236,0,0,1-8.261,15.781,42.848,42.848,0,0,1-13.581,9.384,64.69,64.69,0,0,1-14.54,4.53,62.576,62.576,0,0,1-11.556,1.2A94.691,94.691,0,0,1-11553.611,3505.436Zm-205.61-.473-.021-.012a7.964,7.964,0,0,1-3.712-6.481,15.6,15.6,0,0,1,1.432-6.991l.015-.041,53.445-116.013a10.545,10.545,0,0,1,9.565-6.011,10.61,10.61,0,0,1,5.641,1.689,9.863,9.863,0,0,1,3.8,4.418l52.577,115.976a10.809,10.809,0,0,1,.2,8.034,10.67,10.67,0,0,1-5.4,5.875l-.068.031a10.458,10.458,0,0,1-4.2.868,10.744,10.744,0,0,1-5.489-1.506,11.165,11.165,0,0,1-4.209-4.5l-.025-.05-.024-.053-11.261-25.134a71.227,71.227,0,0,0-16.107-1.879,67.752,67.752,0,0,0-14.661,1.609l-.047.012a73.111,73.111,0,0,0-12.465,3.619,77.219,77.219,0,0,0-12.228,6.1,144.806,144.806,0,0,0-23.312,18.146,11.95,11.95,0,0,1-8.339,3.774A9.549,9.549,0,0,1-11759.222,3504.963Zm56.438-91.293c-.115.233-.211.42-.289.566l-23.712,50.514c3.136-1.534,6.478-2.984,9.885-4.285a98.267,98.267,0,0,1,15.622-4.63,87.067,87.067,0,0,1,18.844-2c1.981,0,4.014.062,6.07.184l-18.224-40.066c-.041-.075-.084-.171-.134-.286-.913-2.1-2.407-3.621-4.032-3.621C-11700.092,3410.049-11701.52,3411.081-11702.783,3413.67Zm-691.146,91.293-.021-.012a7.964,7.964,0,0,1-3.712-6.481,15.7,15.7,0,0,1,1.432-6.991l.016-.041,53.445-116.017a10.545,10.545,0,0,1,9.564-6.008,10.6,10.6,0,0,1,5.641,1.689,9.863,9.863,0,0,1,3.8,4.418l52.581,115.976a10.833,10.833,0,0,1,.2,8.034,10.665,10.665,0,0,1-5.405,5.875l-.065.031a10.479,10.479,0,0,1-4.2.868,10.745,10.745,0,0,1-5.488-1.506,11.154,11.154,0,0,1-4.207-4.5l-.028-.05-.021-.053-11.264-25.134a71.2,71.2,0,0,0-16.1-1.879,67.712,67.712,0,0,0-14.661,1.609l-.05.012a73,73,0,0,0-12.462,3.619,77.164,77.164,0,0,0-12.23,6.1,144.694,144.694,0,0,0-23.308,18.146,11.965,11.965,0,0,1-8.342,3.774A9.567,9.567,0,0,1-12393.929,3504.963Zm56.454-91.293c-.143.29-.258.51-.352.669l-23.665,50.412c3.136-1.534,6.478-2.984,9.888-4.285a98.239,98.239,0,0,1,15.619-4.63,87.074,87.074,0,0,1,18.844-2c1.984,0,4.014.062,6.07.184l-18.7-41.124c-.919-1.692-2.242-2.85-3.664-2.85C-12334.78,3410.048-12336.211,3411.08-12337.475,3413.67Zm450.855,92.709a10.5,10.5,0,0,1-7.412-3.055,10.457,10.457,0,0,1-3.14-7.5V3379.867a10.445,10.445,0,0,1,3.14-7.5,10.492,10.492,0,0,1,7.412-3.055,10.507,10.507,0,0,1,7.485,3.065,10.5,10.5,0,0,1,3.065,7.486V3475.9c.289,6.4,3.59,9.291,9.717,9.372h53.433a10.5,10.5,0,0,1,7.486,3.068,10.5,10.5,0,0,1,3.064,7.483,10.5,10.5,0,0,1-3.064,7.486,10.5,10.5,0,0,1-7.486,3.068Zm-172.076,0a10.5,10.5,0,0,1-7.414-3.055,10.469,10.469,0,0,1-3.14-7.5V3379.867a10.457,10.457,0,0,1,3.14-7.5,10.491,10.491,0,0,1,7.414-3.055h79.108a10.508,10.508,0,0,1,7.486,3.065,10.505,10.505,0,0,1,3.065,7.486,10.5,10.5,0,0,1-3.065,7.483,10.5,10.5,0,0,1-7.486,3.068h-59.136c-6.413.311-9.375,3.507-9.375,9.764a6.685,6.685,0,0,1-.047.921v30.053h-.024l.021,12.7h0v31.09c.007-.031.013-.059.02-.087,0,7.153,3.768,10.364,10.357,10.364a6.745,6.745,0,0,1,.924.047h58.947a10.508,10.508,0,0,1,7.485,3.065,10.507,10.507,0,0,1,3.065,7.486,10.5,10.5,0,0,1-3.065,7.486,10.5,10.5,0,0,1-7.485,3.068Zm-131.812-3.068a10.5,10.5,0,0,1-3.065-7.486V3390.418h-35.088a10.5,10.5,0,0,1-7.486-3.065,10.5,10.5,0,0,1-3.067-7.486,10.5,10.5,0,0,1,3.067-7.486,10.492,10.492,0,0,1,7.486-3.068h91.109a10.5,10.5,0,0,1,7.486,3.068,10.492,10.492,0,0,1,3.064,7.486,10.5,10.5,0,0,1-3.064,7.486,10.509,10.509,0,0,1-7.486,3.065h-34.92v105.406a10.457,10.457,0,0,1-3.139,7.5,10.5,10.5,0,0,1-7.412,3.055A10.5,10.5,0,0,1-12190.508,3503.311Z" transform="translate(12617.695 -3335.215)"/><path class="b" d="M27.7,7.259a5,5,0,0,1,8.6,0L59.527,46.451A5,5,0,0,1,55.225,54H8.775a5,5,0,0,1-4.3-7.549Z" transform="translate(648.816 70.615) rotate(90)"/></g><g transform="translate(364.7 429)"><path class="c" d="M31.449,62.633a97.59,97.59,0,0,0-17.421,9.013c2.749,6.051,8.791,17.415,20.362,31.447,1.465-7.179,3.334-14.8,5.693-22.837a221.781,221.781,0,0,1,8.146-23.091,134.2,134.2,0,0,0-16.78,5.468"/><path class="c" d="M134.546,55.32a249.643,249.643,0,0,0-35.217-3.429,196.738,196.738,0,0,0-33.014,1.718,196.21,196.21,0,0,0-11.84,30.87,251.069,251.069,0,0,0-7.334,32.671,250.974,250.974,0,0,0,25.138,22.121c25.264,19.491,47.241,27.729,61.23,31.208a97.516,97.516,0,0,0,19.392,2.949c2.364-11.554,6.186-42.721-7.377-88.949A200.113,200.113,0,0,0,134.546,55.32"/><path class="c" d="M99.761,36.9c9.3.268,17.892.96,25.843,1.936-10.212-16.432-20.3-25.58-25.572-29.673C94.912,13.177,85.225,22,75.314,37.515A221.775,221.775,0,0,1,99.761,36.9"/><path class="c" d="M144.627,41.925c22.065,4.528,37.238,11.094,45.976,15.716A100.088,100.088,0,0,0,113.558.918c8.15,7.194,20.116,20.123,31.069,41.007"/><path class="c" d="M56.4,39.987C67.075,20.23,78.551,7.885,86.447.917A100.1,100.1,0,0,0,9.929,56.508c9.059-5.355,24.36-12.469,46.476-16.521"/><path class="d" d="M31.251,122.32C15.124,105,6.306,90.136,1.815,80.976A100.092,100.092,0,0,0,31.74,173.07c-1.752-10.048-3.354-27.257-.489-50.75"/><path class="d" d="M63.117,151.149c-6.634-5.118-12.624-10.182-18.028-15.13a168.064,168.064,0,0,0,.125,23.528,116.544,116.544,0,0,0,5.854,27.672,100.093,100.093,0,0,0,96.291.873c-16.294-1.529-47.369-8.5-84.242-36.943"/><path class="c" d="M168.552,64.307c-4.58-1.707-9.878-3.439-15.921-5.05,2.6,6.428,5.06,13.41,7.286,21,13.353,45.509,11.021,77.493,8.346,92.811A100.071,100.071,0,0,0,198.1,80.552a122.384,122.384,0,0,0-29.548-16.245"/></g></g></svg>