<svg xmlns="http://www.w3.org/2000/svg" xmlns:xlink="http://www.w3.org/1999/xlink" width="1243.515" height="200" viewBox="0 0 1243.515 200"><defs><style>.a{fill:none;}.b{clip-path:url(#a);}.c{fill:#fff;}.d{fill:#00abe5;}.e{fill:#5fbf00;}</style><clipPath id="a"><rect class="a" width="1243.515" height="200"/></clipPath></defs><g class="b"><path class="c" d="M200,100A100,100,0,1,1,100,0,100,100,0,0,1,200,100"/><path class="d" d="M158.785,180.865l0,.03.027-.02Z"/><path class="d" d="M4.9,69.088l-.014-.016-.007.023Z"/><path class="d" d="M31.449,62.633a97.59,97.59,0,0,0-17.421,9.013c2.749,6.051,8.791,17.415,20.362,31.447,1.465-7.179,3.334-14.8,5.693-22.837a221.781,221.781,0,0,1,8.146-23.091,134.2,134.2,0,0,0-16.78,5.468"/><path class="d" d="M134.546,55.32a249.643,249.643,0,0,0-35.217-3.429,196.738,196.738,0,0,0-33.014,1.718,196.21,196.21,0,0,0-11.84,30.87,251.069,251.069,0,0,0-7.334,32.671,250.974,250.974,0,0,0,25.138,22.121c25.264,19.491,47.241,27.729,61.23,31.208a97.516,97.516,0,0,0,19.392,2.949c2.364-11.554,6.186-42.721-7.377-88.949A200.113,200.113,0,0,0,134.546,55.32"/><path class="d" d="M99.761,36.9c9.3.268,17.892.96,25.843,1.936-10.212-16.432-20.3-25.58-25.572-29.673C94.912,13.177,85.225,22,75.314,37.515A221.775,221.775,0,0,1,99.761,36.9"/><path class="d" d="M144.627,41.925c22.065,4.528,37.238,11.094,45.976,15.716A100.088,100.088,0,0,0,113.558.918c8.15,7.194,20.116,20.123,31.069,41.007"/><path class="d" d="M56.4,39.987C67.075,20.23,78.551,7.885,86.447.917A100.1,100.1,0,0,0,9.929,56.508c9.059-5.355,24.36-12.469,46.476-16.521"/><path class="e" d="M31.251,122.32C15.124,105,6.306,90.136,1.815,80.976A100.092,100.092,0,0,0,31.74,173.07c-1.752-10.048-3.354-27.257-.489-50.75"/><path class="e" d="M63.117,151.149c-6.634-5.118-12.624-10.182-18.028-15.13a168.064,168.064,0,0,0,.125,23.528,116.544,116.544,0,0,0,5.854,27.672,100.093,100.093,0,0,0,96.291.873c-16.294-1.529-47.369-8.5-84.242-36.943"/><path class="d" d="M168.552,64.307c-4.58-1.707-9.878-3.439-15.921-5.05,2.6,6.428,5.06,13.41,7.286,21,13.353,45.509,11.021,77.493,8.346,92.811A100.071,100.071,0,0,0,198.1,80.552a122.384,122.384,0,0,0-29.548-16.245"/><path class="d" d="M300,157.851a6.831,6.831,0,0,0,4.792-3.039,50.483,50.483,0,0,0,3.389-5.844l43.242-90.925q1.632-3.034,2.922-5.61a10.311,10.311,0,0,0,1.285-4.441,3.454,3.454,0,0,0-1.636-3.272,13.957,13.957,0,0,0-3.507-1.4V39.11h39.5v4.208a19.218,19.218,0,0,0-3.273,1.285q-1.637.821-1.635,3.389a9.207,9.207,0,0,0,.817,3.74q.818,1.874,2.455,4.909l48.618,95.133a7.961,7.961,0,0,0,3.156,3.74,47.5,47.5,0,0,0,4.558,2.337v4.207H403.547v-4.207a5.53,5.53,0,0,0,2.338-.7,2.248,2.248,0,0,0,1.4-2.1,14.6,14.6,0,0,0-1.87-6.079l-8.882-17.3H339.5l-8.414,16.6q-2.34,4.908-2.337,7.012,0,2.574,4.441,2.571v4.207H300Zm88.12-43.476L368.486,70.9l-21.972,43.476Z"/><path class="d" d="M535.61,153.644q0,4.206,5.141,4.207v4.207h-36v-4.207a4.5,4.5,0,0,0,2.922-1.052,3.842,3.842,0,0,0,1.287-3.155V60.614H470.395a7.969,7.969,0,0,0-4.089,1.169q-1.989,1.173-1.988,4.441h-4.207V33.5h4.207q0,3.276,1.988,4.441a7.931,7.931,0,0,0,4.089,1.169H574.177a7.946,7.946,0,0,0,4.091-1.169q1.981-1.167,1.986-4.441h4.207V66.224h-4.207q0-3.271-1.986-4.441a7.984,7.984,0,0,0-4.091-1.169H535.61Z"/><path class="d" d="M738.73,64.354a4.3,4.3,0,0,0-1.987-3.857q-1.99-1.281-6.9-1.286H654.115V88.2h45.813a16.522,16.522,0,0,0,7.246-1.286q2.57-1.281,2.571-6.661h4.208v36.463h-4.208q0-5.375-2.571-6.895a14.358,14.358,0,0,0-7.246-1.519H654.115v32.256h78.07a9.409,9.409,0,0,0,5.727-1.636,5.229,5.229,0,0,0,2.219-4.441h4.209V166.5h-4.209q0-3.509-2.219-3.975a28.522,28.522,0,0,0-5.727-.467H623.262v-4.207a4.5,4.5,0,0,0,2.921-1.052,3.846,3.846,0,0,0,1.286-3.155V47.524a3.847,3.847,0,0,0-1.286-3.155,4.5,4.5,0,0,0-2.921-1.052V39.11H729.847q4.91,0,6.9-1.519A4.886,4.886,0,0,0,738.73,33.5h4.207V64.354Z"/><path class="d" d="M907.255,166.5q0-3.507-2.221-3.975a28.511,28.511,0,0,0-5.726-.467H788.047v-4.207q7.011,0,7.012-4.207V47.525q0-4.208-7.012-4.207V39.11h40.2v4.208q-6.546,0-6.544,4.207v93.029h77.6a9.4,9.4,0,0,0,5.726-1.636,5.228,5.228,0,0,0,2.221-4.441h4.207V166.5Z"/><path class="d" d="M944.185,157.851a6.831,6.831,0,0,0,4.792-3.039,50.483,50.483,0,0,0,3.389-5.844l43.242-90.925q1.632-3.034,2.922-5.61a10.312,10.312,0,0,0,1.285-4.441,3.454,3.454,0,0,0-1.636-3.272,13.958,13.958,0,0,0-3.507-1.4V39.11h39.5v4.208A19.217,19.217,0,0,0,1030.9,44.6q-1.636.821-1.635,3.389a9.207,9.207,0,0,0,.817,3.74q.818,1.874,2.455,4.909l48.618,95.133a7.961,7.961,0,0,0,3.156,3.74,47.51,47.51,0,0,0,4.558,2.337v4.207h-41.139v-4.207a5.53,5.53,0,0,0,2.338-.7,2.248,2.248,0,0,0,1.4-2.1,14.61,14.61,0,0,0-1.87-6.079l-8.882-17.3H983.686l-8.414,16.6q-2.34,4.908-2.337,7.012,0,2.574,4.441,2.571v4.207H944.185Zm88.12-43.476L1012.671,70.9,990.7,114.375Z"/><path class="d" d="M1133.422,123.491l2.338,1.169a7.4,7.4,0,0,0,.934,3.739q1.635,2.8,6.429,5.494a65.31,65.31,0,0,0,10.986,4.791,95.058,95.058,0,0,0,12.972,3.389,65.732,65.732,0,0,0,12.154,1.285q3.974,0,10.286-.583a61.025,61.025,0,0,0,12.387-2.454,34.809,34.809,0,0,0,10.519-5.143,10.237,10.237,0,0,0,4.441-8.649q0-5.373-4.091-7.947a30.021,30.021,0,0,0-10.751-3.74,116.752,116.752,0,0,0-15.194-1.519q-8.537-.351-17.415-1.052a158.189,158.189,0,0,1-17.412-2.337,48.108,48.108,0,0,1-15.193-5.494,30.206,30.206,0,0,1-10.753-10.518q-4.09-6.661-4.09-17.413a32.441,32.441,0,0,1,3.39-14.259,34.6,34.6,0,0,1,10.4-12.388,57.347,57.347,0,0,1,17.764-8.766,84.333,84.333,0,0,1,25.243-3.388,108.294,108.294,0,0,1,21.505,1.87,159.888,159.888,0,0,1,15.779,3.973q6.658,2.1,11.218,3.973a20.881,20.881,0,0,0,7.6,1.87q3.273,0,4.676-1.4l2.8,1.87-16.127,29.217-2.338-.935a12.9,12.9,0,0,0-1.87-5.375,20.015,20.015,0,0,0-6.194-5.493,53.953,53.953,0,0,0-10.167-4.792,82.977,82.977,0,0,0-12.623-3.389,70.956,70.956,0,0,0-24.192-.468,50.4,50.4,0,0,0-9.933,2.454,21.956,21.956,0,0,0-7.365,4.325,8.688,8.688,0,0,0-2.921,6.661q0,5.61,4.091,8.415a29.781,29.781,0,0,0,10.752,4.207,100.894,100.894,0,0,0,15.193,1.87q8.531.471,17.415,1.169a142.317,142.317,0,0,1,17.413,2.454,50.351,50.351,0,0,1,15.193,5.61,30.571,30.571,0,0,1,10.753,10.4q4.083,6.546,4.091,17.063,0,12.156-6.429,19.868a45.336,45.336,0,0,1-16.011,12.155,72.169,72.169,0,0,1-20.687,5.96,153.358,153.358,0,0,1-20.686,1.52,137.4,137.4,0,0,1-22.322-1.52,82.967,82.967,0,0,1-14.959-3.74,99.3,99.3,0,0,1-9.468-3.974,14.053,14.053,0,0,0-6.076-1.752,3.885,3.885,0,0,0-3.039,1.87l-3.272-1.87Z"/></g></svg>