<svg xmlns="http://www.w3.org/2000/svg" width="15" height="13.125" viewBox="0 0 15 13.125">
  <path id="Icon_awesome-server" data-name="Icon awesome-server" d="M14.063,6H.938A.938.938,0,0,1,0,5.063V3.188A.938.938,0,0,1,.938,2.25H14.063A.938.938,0,0,1,15,3.188V5.063A.938.938,0,0,1,14.063,6ZM12.656,3.422a.7.7,0,1,0,.7.7A.7.7,0,0,0,12.656,3.422Zm-1.875,0a.7.7,0,1,0,.7.7A.7.7,0,0,0,10.781,3.422Zm3.281,7.266H.938A.938.938,0,0,1,0,9.75V7.875a.938.938,0,0,1,.938-.937H14.063A.938.938,0,0,1,15,7.875V9.75A.938.938,0,0,1,14.063,10.687ZM12.656,8.109a.7.7,0,1,0,.7.7A.7.7,0,0,0,12.656,8.109Zm-1.875,0a.7.7,0,1,0,.7.7A.7.7,0,0,0,10.781,8.109Zm3.281,7.266H.938A.938.938,0,0,1,0,14.438V12.563a.938.938,0,0,1,.938-.937H14.063a.938.938,0,0,1,.937.937v1.875A.938.938,0,0,1,14.063,15.375ZM12.656,12.8a.7.7,0,1,0,.7.7A.7.7,0,0,0,12.656,12.8Zm-1.875,0a.7.7,0,1,0,.7.7A.7.7,0,0,0,10.781,12.8Z" transform="translate(0 -2.25)" fill="#62bb46"/>
</svg>
