<svg xmlns="http://www.w3.org/2000/svg" width="98" height="85" viewBox="0 0 98 85">
  <g id="グループ_3679" data-name="グループ 3679" transform="translate(-591 -378)">
    <g id="多角形_89" data-name="多角形 89" transform="translate(591 378)" fill="none">
      <path d="M42.069,12.023a8,8,0,0,1,13.862,0L91.085,73a8,8,0,0,1-6.931,12H13.846A8,8,0,0,1,6.915,73Z" stroke="none"/>
      <path d="M 48.99999618530273 14.018310546875 C 48.56843185424805 14.018310546875 47.76945114135742 14.14836120605469 47.26728820800781 15.01945495605469 L 12.11314392089844 76.00112915039062 C 11.61155700683594 76.8712158203125 11.89846801757812 77.62731170654297 12.11414337158203 78.00057983398438 C 12.32979583740234 78.37381744384766 12.84154510498047 78.99998474121094 13.84584808349609 78.99998474121094 L 84.15415954589844 78.99998474121094 C 85.15812683105469 78.99998474121094 85.66989135742188 78.37368774414062 85.88559722900391 78.0003662109375 C 86.10128784179688 77.6270751953125 86.38826751708984 76.87094879150391 85.88684844970703 76.00112915039062 L 50.73270416259766 15.01945495605469 C 50.23054122924805 14.14838409423828 49.43156051635742 14.018310546875 48.99999618530273 14.018310546875 M 48.99999618530273 8.018318176269531 C 51.6959114074707 8.018318176269531 54.39182281494141 9.353172302246094 55.93083190917969 12.02288818359375 L 91.08497619628906 73.00456237792969 C 94.15948486328125 78.33790588378906 90.30897521972656 85.00070953369141 84.15414428710938 84.99998474121094 L 13.84584808349609 84.99998474121094 C 7.689796447753906 85 3.840507507324219 78.33790588378906 6.915016174316406 73.00456237792969 L 42.06916046142578 12.02288818359375 C 43.60816955566406 9.353172302246094 46.30408096313477 8.018318176269531 48.99999618530273 8.018318176269531 Z" stroke="none" fill="#555"/>
    </g>
    <rect id="長方形_1760" data-name="長方形 1760" width="6" height="24" rx="2" transform="translate(637 412)" fill="#555"/>
    <rect id="長方形_1761" data-name="長方形 1761" width="6" height="6" rx="2" transform="translate(637 442)" fill="#555"/>
  </g>
</svg>
