<svg xmlns="http://www.w3.org/2000/svg" width="16" height="21" viewBox="0 0 16 21">
  <g id="グループ_3664" data-name="グループ 3664" transform="translate(-325.379 -203.172)">
    <path id="長方形_1746" data-name="長方形 1746" d="M1,0H7A1,1,0,0,1,8,1V18a3,3,0,0,1-3,3H1a1,1,0,0,1-1-1V1A1,1,0,0,1,1,0Z" transform="translate(333.379 203.172)" fill="#dea110"/>
    <path id="長方形_1747" data-name="長方形 1747" d="M1,0H6A1,1,0,0,1,7,1V15a0,0,0,0,1,0,0H1a1,1,0,0,1-1-1V1A1,1,0,0,1,1,0Z" transform="translate(329.379 209.172)" fill="#efc433"/>
    <path id="長方形_1748" data-name="長方形 1748" d="M1,0H6A1,1,0,0,1,7,1V11a0,0,0,0,1,0,0H1a1,1,0,0,1-1-1V1A1,1,0,0,1,1,0Z" transform="translate(325.379 213.172)" fill="#f8de6f"/>
  </g>
</svg>
