<svg xmlns="http://www.w3.org/2000/svg" width="21.999" height="17" viewBox="0 0 21.999 17">
  <g id="グループ_1276" data-name="グループ 1276" transform="translate(-1161.001 -171)">
    <path id="前面オブジェクトで型抜き_13" data-name="前面オブジェクトで型抜き 13" d="M7603.817,8886h-5.678v-2.6h5.24a1.783,1.783,0,0,0,.435,2.6Zm-9.533,0a1.3,1.3,0,1,1,1.29-1.3A1.293,1.293,0,0,1,7594.284,8886Zm13.43-5.2h-9.575v-2.6h10.538a1.78,1.78,0,0,0-.963,1.584v1.015Zm-13.43,0a1.3,1.3,0,1,1,1.29-1.3A1.294,1.294,0,0,1,7594.284,8880.8Zm16.715-1.982,0,0a1.8,1.8,0,0,0-.676-.615H7611v.617Zm0-3.215H7598.14V8873H7611v2.6Zm-16.715,0a1.3,1.3,0,1,1,1.29-1.3A1.294,1.294,0,0,1,7594.284,8875.6Z" transform="translate(-6432 -8702)" fill="#43a5c4"/>
    <path id="合体_19" data-name="合体 19" d="M4.714,10.214V6.286H.786a.786.786,0,0,1,0-1.571H4.714V.786a.786.786,0,0,1,1.571,0V4.714h3.928a.786.786,0,1,1,0,1.571H6.286v3.928a.786.786,0,1,1-1.571,0Z" transform="translate(1172 177)" fill="#43a5c4"/>
  </g>
</svg>
