<svg xmlns="http://www.w3.org/2000/svg" width="22.001" height="17" viewBox="0 0 22.001 17">
  <g id="グループ_1268" data-name="グループ 1268" transform="translate(-1132.999 -140)">
    <path id="前面オブジェクトで型抜き_8" data-name="前面オブジェクトで型抜き 8" d="M7604.819,8802h-5.679v-2.6h5.239a1.783,1.783,0,0,0,.437,2.6Zm-9.536,0a1.3,1.3,0,1,1,1.289-1.3A1.294,1.294,0,0,1,7595.283,8802Zm13.432-5.2h-9.575v-2.6h10.538a1.784,1.784,0,0,0-.963,1.585v1.016Zm-13.432,0a1.3,1.3,0,1,1,1.289-1.3A1.295,1.295,0,0,1,7595.283,8796.8Zm16.714-1.987,0,0a1.8,1.8,0,0,0-.673-.612H7612v.614Zm0-3.211H7599.14V8789H7612v2.6Zm-16.714,0a1.3,1.3,0,1,1,1.289-1.3A1.295,1.295,0,0,1,7595.283,8791.6Z" transform="translate(-6461 -8649)" fill="#909090"/>
    <path id="合体_16" data-name="合体 16" d="M4.714,10.214V6.286H.786a.786.786,0,0,1,0-1.571H4.714V.786a.786.786,0,0,1,1.571,0V4.714h3.928a.786.786,0,1,1,0,1.571H6.286v3.928a.786.786,0,1,1-1.571,0Z" transform="translate(1144 146)" fill="#909090"/>
  </g>
</svg>
