<svg xmlns="http://www.w3.org/2000/svg" width="12.705" height="12.881" viewBox="0 0 12.705 12.881">
  <path id="パス_96" data-name="パス 96" d="M5.894,21.355l-.175-.449q-.4-1.02-.434-1.1l-.562-1.254Q4.125,17.2,3.574,17.2q-.832,0-1.312,1.559-.352-.129-.352-.375a5.034,5.034,0,0,1,.8-2.6c.563-.625,1.242-1.362,1.687-1.362.875,0,1.726,1.612,2.664,4.127l.229.691.07.159c1.664-2.641,3.176-4.36,4.316-4.36.3,0,.712.573,1.111.745l-1.111,1.664c-.187-.055-.2-.13-.28-.13-.63-.482-2.356,1.119-3.544,3.1l.175.492.349.961c.946,2.578,1.336,3.691,2,3.691a1.97,1.97,0,0,0,1.671-1.385c.219.141.155.728.155.876,0,.391-.468.888-1.093,1.435a2.681,2.681,0,0,1-1.617.82q-1.359,0-2.777-3.832l-.328-.867-.493.766C4.3,26.106,2.93,27.3,1.477,27.3a2.336,2.336,0,0,1-1.395-.41l1.359-1.336a1.026,1.026,0,0,0,.82.229c.883,0,1.161-.629,2.317-2.315l.788-1.311Z" transform="translate(-0.082 -14.423)" fill="#62bb46"/>
</svg>
