<svg xmlns="http://www.w3.org/2000/svg" width="31.212" height="24.28" viewBox="0 0 31.212 24.28">
  <g id="グループ_913" data-name="グループ 913" transform="translate(-18.002 -128.002)">
    <path id="前面オブジェクトで型抜き_9" data-name="前面オブジェクトで型抜き 9" d="M7606.053,8889.5h-6.766v-2.4h5.985a7.607,7.607,0,0,0,.78,2.4Zm-11.414,0a1.2,1.2,0,1,1,1.146-1.2A1.173,1.173,0,0,1,7594.64,8889.5Zm11.271-6.8h-6.624v-2.4h8.383a7.7,7.7,0,0,0-1.759,2.4Zm-11.271,0a1.2,1.2,0,1,1,1.146-1.2A1.17,1.17,0,0,1,7594.64,8882.7Zm20.857-6.8h-16.209v-2.4H7615.5v2.4Zm-20.857,0a1.2,1.2,0,1,1,1.146-1.2A1.174,1.174,0,0,1,7594.64,8875.9Z" transform="translate(-7574.999 -8744.998)" fill="#43a5c4" stroke="#43a5c4" stroke-width="1"/>
    <g id="グループ_1269" data-name="グループ 1269" transform="translate(4604.953 20811.953)">
      <path id="Icon_material-search" data-name="Icon material-search" d="M17.383,15.837h-.814l-.289-.278a6.709,6.709,0,1,0-.721.721l.278.289v.814l5.153,5.143,1.536-1.536Zm-6.184,0A4.638,4.638,0,1,1,15.837,11.2,4.632,4.632,0,0,1,11.2,15.837Z" transform="translate(-4578.265 -20682.197)" fill="#43a5c4"/>
    </g>
  </g>
</svg>
