<svg xmlns="http://www.w3.org/2000/svg" width="16.467" height="14" viewBox="0 0 16.467 14">
  <g id="グループ_1274" data-name="グループ 1274" transform="translate(-2292.428 8662.001)">
    <path id="前面オブジェクトで型抜き_10" data-name="前面オブジェクトで型抜き 10" d="M2270.773,23.251h-9.379V10h15.144v3.307c-.056,0-.116-.007-.178-.007h-.769V11.892h-3.785V13.3h-.947V11.892h-3.786v2.84h1.225a2.182,2.182,0,0,0-.138.767c0,.057,0,.118.007.179h-1.094v2.839h3.7v.947h-3.7V22.3h3.7v.945l0,0Zm-8.432-3.786V22.3h3.785v-2.84Zm0-3.786v2.839h3.785V15.678Zm0-3.786v2.84h3.785v-2.84Z" transform="translate(31.034 -8672)" fill="#43a5c4"/>
    <path id="合体_17" data-name="合体 17" d="M2802.894,337.5V332h-1.5a1.5,1.5,0,0,1,0-3h6a1.5,1.5,0,1,1,0,3h-1.5v5.5a1.5,1.5,0,0,1-3,0Z" transform="translate(-500 -8987)" fill="#43a5c4"/>
  </g>
</svg>
