<svg xmlns="http://www.w3.org/2000/svg" width="85.17" height="85.169" viewBox="0 0 85.17 85.169">
  <path id="Icon_awesome-tag" data-name="Icon awesome-tag" d="M0,41.939V7.985A7.985,7.985,0,0,1,7.985,0H41.939a7.985,7.985,0,0,1,5.646,2.339L82.831,37.585a7.985,7.985,0,0,1,0,11.292L48.876,82.831a7.985,7.985,0,0,1-11.292,0L2.339,47.585A7.985,7.985,0,0,1,0,41.939ZM18.631,10.646a7.985,7.985,0,1,0,7.985,7.985A7.985,7.985,0,0,0,18.631,10.646Z" transform="translate(85.17) rotate(90)" fill="#777"/>
</svg>
