<svg xmlns="http://www.w3.org/2000/svg" width="16.932" height="15.25" viewBox="0 0 16.932 15.25">
  <g id="グループ_1273" data-name="グループ 1273" transform="translate(-2292.428 8662.001)">
    <path id="前面オブジェクトで型抜き_11" data-name="前面オブジェクトで型抜き 11" d="M2070.944,15.251h-9.515V2h15.144V5.934a2.231,2.231,0,0,0-.947.37V3.892h-3.786V6.38a2.225,2.225,0,0,0-.946-.429V3.892h-3.786v2.84h1.639a2.108,2.108,0,0,0-.255.414,2.048,2.048,0,0,0-.165.532h-1.219v2.839h2.015l.364.947h-2.38V14.3h3.472l.364.945Zm-8.568-3.786V14.3h3.785V11.464Zm0-3.786v2.839h3.785V7.678Zm0-3.786v2.84h3.785V3.892Z" transform="translate(231 -8664)" fill="#d78a3e"/>
    <path id="合体_18" data-name="合体 18" d="M2800.39,402.907a1.482,1.482,0,0,1-1.571-.905l-3.02-7.852a1.373,1.373,0,0,1,.88-1.785,1.5,1.5,0,0,1,1.886.832l1.825,4.745,1.825-4.745a1.5,1.5,0,0,1,1.886-.832,1.374,1.374,0,0,1,.88,1.785L2801.96,402a1.469,1.469,0,0,1-1.382.917A1.541,1.541,0,0,1,2800.39,402.907Z" transform="translate(-495.709 -9049.669)" fill="#d78a3e"/>
  </g>
</svg>
